<svg width="17" height="17" viewBox="0 0 17 17" fill="none" xmlns="http://www.w3.org/2000/svg">
<g clip-path="url(#clip0_859_597)">
<path d="M13.083 11.9213L13.3592 14.1597C13.4301 14.7476 12.7996 15.1584 12.2967 14.8538L9.3288 13.0901C9.00297 13.0901 8.68422 13.0688 8.37255 13.0263C8.90945 12.4039 9.20594 11.61 9.20839 10.788C9.20839 8.77633 7.46589 7.14716 5.31255 7.14716C4.49089 7.14716 3.73297 7.38091 3.10255 7.79175C3.0813 7.61466 3.07422 7.43758 3.07422 7.25341C3.07422 4.0305 5.87214 1.41675 9.3288 1.41675C12.7855 1.41675 15.5834 4.0305 15.5834 7.25341C15.5834 9.16591 14.5988 10.8588 13.083 11.9213Z" stroke="white" stroke-width="1.5" stroke-linecap="round" stroke-linejoin="round"/>
<path d="M9.20829 10.7878C9.20829 11.6307 8.89663 12.4099 8.37246 13.0261C7.67121 13.8761 6.55913 14.4216 5.31246 14.4216L3.46371 15.5195C3.15204 15.7107 2.75538 15.4486 2.79788 15.0874L2.97496 13.692C2.02579 13.0332 1.41663 11.9778 1.41663 10.7878C1.41663 9.54114 2.08246 8.44322 3.10246 7.79156C3.73288 7.38072 4.49079 7.14697 5.31246 7.14697C7.46579 7.14697 9.20829 8.77614 9.20829 10.7878Z" stroke="white" stroke-width="1.5" stroke-linecap="round" stroke-linejoin="round"/>
</g>
<defs>
<clipPath id="clip0_859_597">
<rect width="17" height="17" fill="white"/>
</clipPath>
</defs>
</svg>
