<svg width="17" height="17" viewBox="0 0 17 17" fill="none" xmlns="http://www.w3.org/2000/svg">
<path d="M5.29834 12.998L7.49417 14.698C7.77751 14.9813 8.41501 15.123 8.84001 15.123H11.5317C12.3817 15.123 13.3025 14.4855 13.515 13.6355L15.215 8.46466C15.5692 7.473 14.9317 6.623 13.8692 6.623H11.0358C10.6108 6.623 10.2567 6.26883 10.3275 5.773L10.6817 3.50633C10.8233 2.86883 10.3983 2.1605 9.76084 1.948C9.19417 1.7355 8.48584 2.01883 8.20251 2.44383L5.29834 6.76466" stroke="white" stroke-width="1.5" stroke-miterlimit="10"/>
<path d="M1.68579 12.998V6.05628C1.68579 5.06462 2.11079 4.71045 3.10246 4.71045H3.81079C4.80246 4.71045 5.22746 5.06462 5.22746 6.05628V12.998C5.22746 13.9896 4.80246 14.3438 3.81079 14.3438H3.10246C2.11079 14.3438 1.68579 13.9896 1.68579 12.998Z" stroke="white" stroke-width="1.5" stroke-linecap="round" stroke-linejoin="round"/>
</svg>
